<?xml version="1.0" encoding="utf-8"?>
<!-- Generator: Adobe Illustrator 16.0.0, SVG Export Plug-In . SVG Version: 6.00 Build 0)  -->
<!DOCTYPE svg PUBLIC "-//W3C//DTD SVG 1.1//EN" "http://www.w3.org/Graphics/SVG/1.1/DTD/svg11.dtd" [
	<!ENTITY ns_flows "http://ns.adobe.com/Flows/1.0/">
	<!ENTITY ns_extend "http://ns.adobe.com/Extensibility/1.0/">
	<!ENTITY ns_ai "http://ns.adobe.com/AdobeIllustrator/10.0/">
	<!ENTITY ns_graphs "http://ns.adobe.com/Graphs/1.0/">
]>
<svg version="1.1" id="Слой_1" xmlns:x="&ns_extend;" xmlns:i="&ns_ai;" xmlns:graph="&ns_graphs;"
	 xmlns="http://www.w3.org/2000/svg" xmlns:xlink="http://www.w3.org/1999/xlink" xmlns:a="http://ns.adobe.com/AdobeSVGViewerExtensions/3.0/"
	 x="0px" y="0px" width="150px" height="190px" style="fill:#FFFFFF;" viewBox="0 0 150 190" enable-background="new 0 0 150 190" xml:space="preserve">
<path fill-rule="evenodd" clip-rule="evenodd" d="M109.501,146.83c-14.471,0-33.227-0.096-45.333-0.096
	c-21.766,0-24.196-29.166-6.688-35.489c-0.088-12.898,7.224-25.887,22.06-28.814c-3.834-6.357-10.915-10.769-20.836-9.507
	c-20.979,2.667-23.87,27.709-10.086,37.496l-3.803,5.364c-18.169-12.979-14.237-46.485,12.925-49.939
	c14.4-1.831,24.305,5.837,28.814,15.983c13.688,0.2,22.614,7.925,26.496,17.687C141.395,102.428,141.739,146.83,109.501,146.83z
	 M108.325,106.831c-1.692-9.79-9.259-18.542-22.306-18.542c-17.151,0-23.656,15.824-20.943,28.578
	c-17.582,0-15.896,23.381-0.508,23.381c10.818,0,32.613-0.372,45.634-0.372C132.948,139.876,132.703,104.59,108.325,106.831z
	 M85.755,67.327l8.948-8.488l4.919,5.516l-10.105,7.419L85.755,67.327z M68.21,59.099l3.402-16.06l6.702,1.709l-4.527,15.947
	L68.21,59.099z M42.343,49.327l7.274-2.159l3.905,11.186L48.01,60.21L42.343,49.327z M19.086,65.442l3.588-6.513l13.463,9.704
	L33.439,73.9L19.086,65.442z M27.424,95.126l-12.509,1.013L14.72,88.37l12.171,0.959L27.424,95.126z M37.089,115.774l-12.287,11.647
	l-4.694-6.382l13.275-9.744L37.089,115.774z"/>
</svg>

