<?xml version="1.0" encoding="utf-8"?>
<!-- Generator: Adobe Illustrator 16.0.0, SVG Export Plug-In . SVG Version: 6.00 Build 0)  -->
<!DOCTYPE svg PUBLIC "-//W3C//DTD SVG 1.1//EN" "http://www.w3.org/Graphics/SVG/1.1/DTD/svg11.dtd" [
	<!ENTITY ns_flows "http://ns.adobe.com/Flows/1.0/">
	<!ENTITY ns_extend "http://ns.adobe.com/Extensibility/1.0/">
	<!ENTITY ns_ai "http://ns.adobe.com/AdobeIllustrator/10.0/">
	<!ENTITY ns_graphs "http://ns.adobe.com/Graphs/1.0/">
]>
<svg version="1.1" id="Слой_1" xmlns:x="&ns_extend;" xmlns:i="&ns_ai;" xmlns:graph="&ns_graphs;"
	 xmlns="http://www.w3.org/2000/svg" xmlns:xlink="http://www.w3.org/1999/xlink" xmlns:a="http://ns.adobe.com/AdobeSVGViewerExtensions/3.0/"
	 x="0px" y="0px" width="150px" height="190px" style="fill:#FFFFFF;" viewBox="0 0 150 190" enable-background="new 0 0 150 190" xml:space="preserve">
<path fill-rule="evenodd" clip-rule="evenodd" d="M95.113,147.784c-14.471,0-33.227-0.096-45.333-0.096
	c-21.766,0-24.196-29.166-6.687-35.489c-0.1-14.654,9.349-29.426,28.532-29.426c13.996,0,23.104,7.807,27.037,17.696
	C127.005,103.382,127.35,147.784,95.113,147.784z M93.937,107.785c-1.692-9.79-9.259-18.542-22.306-18.542
	c-17.151,0-23.656,15.824-20.943,28.578c-17.582,0-15.896,23.381-0.508,23.381c10.818,0,32.613-0.372,45.634-0.372
	C118.56,140.83,118.315,105.544,93.937,107.785z M38.042,168.563l10.083,2.099l-3.085-9.533l6.122-1.924l2.764,10.158l6.945-7.884
	l4.636,4.111l-7.24,7.213l10.126,2.933l-1.312,6.035l-10.344-2.793l3.522,9.965l-5.948,2.012l-3.205-10.999l-6.591,8.725
	l-4.724-4.111l7.656-7.917l-10.718-2.142L38.042,168.563z M75.438,158.192l2.698-2.939l4.329,3.799l1.606-5.593l3.774,0.772
	l-0.911,5.729l5.62-1.163l1.169,3.657l-5.201,1.8l3.757,4.183l-2.577,2.933l-4.583-4.124l-1.399,5.945l-3.822-0.745l0.974-6.054
	l-5.749,1.588l-1.143-3.61l5.134-2.419L75.438,158.192z M91.886,176.033l5.703,1.118l-1.46-5.638l3.655-1.219l1.862,5.39l4.499-3.79
	l2.842,2.583l-3.755,4.149l5.496,1.755l-0.766,3.828l-5.818-0.91l1.547,5.478l-3.682,1.266l-1.842-5.688l-4.526,4.21l-2.794-2.556
	l3.834-4.663l-5.663-1.417L91.886,176.033z"/>
</svg>
