<?xml version="1.0" encoding="utf-8"?>
<!-- Generator: Adobe Illustrator 16.0.0, SVG Export Plug-In . SVG Version: 6.00 Build 0)  -->
<!DOCTYPE svg PUBLIC "-//W3C//DTD SVG 1.1//EN" "http://www.w3.org/Graphics/SVG/1.1/DTD/svg11.dtd" [
	<!ENTITY ns_flows "http://ns.adobe.com/Flows/1.0/">
	<!ENTITY ns_extend "http://ns.adobe.com/Extensibility/1.0/">
	<!ENTITY ns_ai "http://ns.adobe.com/AdobeIllustrator/10.0/">
	<!ENTITY ns_graphs "http://ns.adobe.com/Graphs/1.0/">
]>
<svg version="1.1" id="Слой_1" xmlns:x="&ns_extend;" xmlns:i="&ns_ai;" xmlns:graph="&ns_graphs;"
	 xmlns="http://www.w3.org/2000/svg" xmlns:xlink="http://www.w3.org/1999/xlink" xmlns:a="http://ns.adobe.com/AdobeSVGViewerExtensions/3.0/"
	 x="0px" y="0px" width="150px" height="190px" style="fill:#FFFFFF;" viewBox="0 0 150 190" enable-background="new 0 0 150 190" xml:space="preserve">
<path fill-rule="evenodd" clip-rule="evenodd" d="M109.501,146.83c-14.471,0-33.227-0.096-45.334-0.096
	c-21.766,0-24.195-29.166-6.687-35.489c-0.088-12.898,7.224-25.887,22.06-28.814c-3.834-6.357-10.915-10.769-20.836-9.507
	c-20.979,2.667-23.871,27.709-10.087,37.496l-3.802,5.364c-18.17-12.979-14.239-46.485,12.925-49.939
	c14.399-1.831,24.306,5.837,28.813,15.983c13.688,0.2,22.615,7.925,26.496,17.687C141.394,102.428,141.739,146.83,109.501,146.83z
	 M108.326,106.831c-1.692-9.79-9.26-18.542-22.307-18.542c-17.15,0-23.655,15.824-20.942,28.578
	c-17.581,0-15.896,23.381-0.508,23.381c10.818,0,32.613-0.372,45.634-0.372C132.949,139.876,132.704,104.59,108.326,106.831z
	 M85.755,67.327l8.947-8.488l4.92,5.516l-10.105,7.419L85.755,67.327z M68.209,59.099l3.403-16.06l6.701,1.709l-4.526,15.947
	L68.209,59.099z M42.343,49.327l7.274-2.159l3.905,11.186L48.01,60.21L42.343,49.327z M19.085,65.442l3.588-6.513l13.463,9.704
	L33.439,73.9L19.085,65.442z M27.423,95.126l-12.508,1.013L14.72,88.37l12.172,0.959L27.423,95.126z M37.088,115.774l-12.287,11.647
	l-4.693-6.382l13.274-9.744L37.088,115.774z M52.43,167.042l10.083,2.099l-3.086-9.533l6.122-1.924l2.764,10.158l6.945-7.884
	l4.636,4.111l-7.24,7.213l10.127,2.933l-1.312,6.035l-10.344-2.793l3.522,9.965l-5.948,2.012l-3.205-10.999l-6.591,8.725
	l-4.724-4.111l7.656-7.917l-10.718-2.142L52.43,167.042z M89.827,156.67l2.698-2.939l4.329,3.799l1.606-5.593l3.773,0.772
	l-0.91,5.729l5.619-1.163l1.17,3.657l-5.201,1.8l3.758,4.183l-2.578,2.933l-4.582-4.124l-1.4,5.945l-3.821-0.745l0.974-6.054
	l-5.749,1.588l-1.143-3.61l5.134-2.419L89.827,156.67z M106.275,174.512l5.703,1.118l-1.46-5.638l3.655-1.219l1.861,5.39l4.499-3.79
	l2.842,2.583l-3.755,4.149l5.496,1.755l-0.766,3.828l-5.818-0.91l1.548,5.478l-3.683,1.266l-1.842-5.688l-4.525,4.21l-2.795-2.556
	l3.834-4.663l-5.662-1.417L106.275,174.512z"/>
</svg>
