<?xml version="1.0" encoding="utf-8"?>
<!-- Generator: Adobe Illustrator 16.0.0, SVG Export Plug-In . SVG Version: 6.00 Build 0)  -->
<!DOCTYPE svg PUBLIC "-//W3C//DTD SVG 1.1//EN" "http://www.w3.org/Graphics/SVG/1.1/DTD/svg11.dtd" [
	<!ENTITY ns_flows "http://ns.adobe.com/Flows/1.0/">
	<!ENTITY ns_extend "http://ns.adobe.com/Extensibility/1.0/">
	<!ENTITY ns_ai "http://ns.adobe.com/AdobeIllustrator/10.0/">
	<!ENTITY ns_graphs "http://ns.adobe.com/Graphs/1.0/">
]>
<svg version="1.1" id="Слой_1" xmlns:x="&ns_extend;" xmlns:i="&ns_ai;" xmlns:graph="&ns_graphs;"
	 xmlns="http://www.w3.org/2000/svg" xmlns:xlink="http://www.w3.org/1999/xlink" xmlns:a="http://ns.adobe.com/AdobeSVGViewerExtensions/3.0/"
	 x="0px" y="0px" width="90px" height="90px" style="fill:#FFFFFF;" viewBox="0 0 150 190"  xml:space="preserve">
<path fill-rule="evenodd" clip-rule="evenodd"  d="M108.839,103.991l-0.747-6.475l16.897-2.035l0.686,7.386L108.839,103.991z
	 M98.442,79.747l9.336-8.856l5.133,5.755l-10.543,7.741L98.442,79.747z M79.121,135.271c-42.625,5.42-46.791-52.379-9.909-57.069
	C106.812,73.42,115.058,130.701,79.121,135.271z M70.218,85.586c-28.568,3.632-24.989,47.035,7.462,42.909
	C105.041,125.016,99.342,81.883,70.218,85.586z M80.136,71.161l3.55-16.756l6.992,1.783l-4.723,16.64L80.136,71.161z M53.146,60.965
	l7.591-2.252l4.074,11.671l-5.752,1.938L53.146,60.965z M28.881,77.78l3.743-6.795l14.048,10.124l-2.815,5.496L28.881,77.78z
	 M37.581,108.752l-13.051,1.057l-0.205-8.107l12.7,1.001L37.581,108.752z M47.665,130.296l-12.819,12.152l-4.898-6.658
	l13.851-10.167L47.665,130.296z M69.3,142.899l-0.697,13.107l-8.719-0.921l3.676-13.155L69.3,142.899z M101.358,151.196
	l-7.447,3.569l-7.646-15.235l6.495-2.861L101.358,151.196z M118.524,126.542l-3.448,6.691l-12.349-7.929l3.003-5.313
	L118.524,126.542z"/>
</svg>
