<svg width="58" height="62" viewBox="0 0 58 62" fill="none" xmlns="http://www.w3.org/2000/svg">
<path fill-rule="evenodd" clip-rule="evenodd" d="M48.3652 30.2589L47.9377 26.3076L57.6074 25.0658L58 29.573L48.3652 30.2589ZM42.4153 15.4645L47.758 10.0603L50.6955 13.5721L44.662 18.2959L42.4153 15.4645ZM31.3583 49.3469C6.96515 52.6543 4.58105 17.3836 25.6877 14.5217C47.2052 11.6035 51.9242 46.5581 31.3583 49.3469ZM26.2634 19.0276C9.91465 21.2439 11.9628 47.7298 30.5337 45.212C46.1917 43.089 42.9303 16.7679 26.2634 19.0276ZM31.9392 10.225L33.9708 0L37.9721 1.08804L35.2693 11.2423L31.9392 10.225ZM16.4935 4.00311L20.8376 2.62887L23.1691 9.75087L19.8774 10.9335L16.4935 4.00311ZM2.60728 14.2641L4.7493 10.1176L12.7886 16.2956L11.1777 19.6494L2.60728 14.2641ZM7.58607 33.1642L0.117316 33.8092L0 28.8621L7.26788 29.4729L7.58607 33.1642ZM13.3569 46.311L6.0209 53.7265L3.2179 49.6636L11.1445 43.4594L13.3569 46.311ZM25.738 54.0017L25.3392 62L20.3495 61.438L22.4532 53.4104L25.738 54.0017ZM44.084 59.0648L39.8223 61.2427L35.4467 51.9458L39.1636 50.2L44.084 59.0648ZM53.9077 44.0202L51.9345 48.1032L44.8674 43.2647L46.586 40.0226L53.9077 44.0202Z" fill="white"/>
</svg>
